<svg width="320" height="88" viewBox="0 0 320 88" fill="none" xmlns="http://www.w3.org/2000/svg">
<g opacity="0.55">
<path opacity="0.55" d="M26.586 9.27299C26.947 9.27299 27.067 9.40299 27.067 9.75399V17.694H31.147C31.498 17.694 31.628 17.824 31.628 18.175V18.875C31.628 19.226 31.498 19.356 31.147 19.356H25.774C25.423 19.356 25.283 19.226 25.283 18.875V9.75399C25.283 9.40299 25.423 9.27299 25.774 9.27299H26.586Z" fill="#394149"/>
<path opacity="0.55" d="M35.187 12.771C35.187 10.455 36.651 9.062 39.197 9.062C41.743 9.062 43.207 10.455 43.207 12.771V15.859C43.207 18.175 41.733 19.568 39.197 19.568C36.661 19.568 35.187 18.175 35.187 15.859V12.771ZM41.523 12.771C41.523 11.471 40.711 10.771 39.247 10.771C37.783 10.771 36.981 11.483 36.981 12.771V15.879C36.981 17.192 37.781 17.879 39.247 17.879C40.713 17.879 41.523 17.157 41.523 15.879V12.771Z" fill="#394149"/>
<path opacity="0.55" d="M55.1471 13.834C55.5381 13.834 55.6281 13.964 55.6281 14.315V16.215C55.6387 16.6637 55.5488 17.1091 55.3648 17.5185C55.1809 17.9279 54.9076 18.291 54.5651 18.581C53.7147 19.2579 52.6427 19.5938 51.5581 19.523C48.9581 19.523 47.5481 18.13 47.5481 15.814V12.711C47.5481 10.422 49.0121 9.022 51.5581 9.022C53.5581 9.022 54.8661 9.814 55.4181 11.398C55.4494 11.4576 55.4664 11.5236 55.4676 11.5909C55.4689 11.6582 55.4543 11.7249 55.4251 11.7855C55.396 11.8462 55.353 11.8991 55.2997 11.9402C55.2464 11.9813 55.1842 12.0093 55.1181 12.022L54.3361 12.293C53.9951 12.413 53.8551 12.343 53.7361 11.993C53.5695 11.5655 53.2653 11.2056 52.8714 10.9702C52.4776 10.7348 52.0165 10.6373 51.5611 10.693C50.0871 10.693 49.2851 11.405 49.2851 12.693V15.881C49.2851 17.194 50.0971 17.881 51.5611 17.881C53.0251 17.881 53.9271 17.209 53.9271 16.227V15.485H51.7481C51.3871 15.485 51.2571 15.345 51.2571 14.994V14.312C51.2571 13.961 51.3871 13.831 51.7481 13.831L55.1471 13.834Z" fill="#394149"/>
<path opacity="0.55" d="M59.7681 12.771C59.7681 10.455 61.2321 9.062 63.7781 9.062C66.3241 9.062 67.7881 10.455 67.7881 12.771V15.859C67.7881 18.175 66.3141 19.568 63.7781 19.568C61.2421 19.568 59.7681 18.175 59.7681 15.859V12.771ZM66.0941 12.771C66.0941 11.471 65.2821 10.771 63.8281 10.771C62.3741 10.771 61.5521 11.483 61.5521 12.771V15.879C61.5521 17.192 62.3641 17.879 63.8281 17.879C65.2921 17.879 66.0941 17.157 66.0941 15.879V12.771Z" fill="#394149"/>
<path opacity="0.55" d="M72.51 9.564C72.51 9.343 72.58 9.27299 72.801 9.27299H73.262C73.483 9.27299 73.533 9.343 73.533 9.564V19.064C73.533 19.285 73.533 19.355 73.262 19.355H72.801C72.58 19.355 72.51 19.285 72.51 19.064V9.564Z" fill="#394149"/>
<path opacity="0.55" d="M82.665 9.27299C83.5004 9.273 84.3017 9.60487 84.8924 10.1956C85.4831 10.7863 85.815 11.5876 85.815 12.423C85.815 13.2584 85.4831 14.0596 84.8924 14.6504C84.3017 15.2411 83.5004 15.573 82.665 15.573H79.658V19.073C79.658 19.294 79.608 19.364 79.397 19.364H78.926C78.715 19.364 78.635 19.294 78.635 19.073V9.573C78.635 9.352 78.715 9.28199 78.926 9.28199L82.665 9.27299ZM82.575 14.573C83.1546 14.573 83.7105 14.3427 84.1204 13.9329C84.5303 13.523 84.7605 12.9671 84.7605 12.3875C84.7605 11.8079 84.5303 11.252 84.1204 10.8421C83.7105 10.4323 83.1546 10.202 82.575 10.202H79.567V14.573H82.575Z" fill="#394149"/>
<path opacity="0.55" d="M93.642 9.072C94.4159 8.98662 95.1967 9.15309 95.8685 9.54672C96.5402 9.94034 97.0672 10.5401 97.371 11.257C97.451 11.417 97.371 11.548 97.211 11.628L96.77 11.828C96.59 11.898 96.519 11.888 96.409 11.698C96.1818 11.1659 95.7913 10.7198 95.2939 10.4243C94.7965 10.1287 94.2179 9.99906 93.642 10.054C91.948 10.054 91.026 10.726 91.026 11.929C91.0161 12.2966 91.1396 12.6554 91.3735 12.9392C91.6075 13.223 91.9362 13.4126 92.299 13.473C92.8381 13.6489 93.3971 13.7567 93.963 13.794C94.6463 13.8311 95.3204 13.9696 95.963 14.205C96.4569 14.3611 96.882 14.6826 97.1669 15.1153C97.4517 15.548 97.5789 16.0656 97.527 16.581C97.527 18.456 96.164 19.588 93.657 19.588C92.8357 19.681 92.0073 19.49 91.3096 19.0468C90.6119 18.6036 90.0869 17.9349 89.822 17.152C89.8043 17.1163 89.7948 17.0771 89.794 17.0373C89.7932 16.9975 89.8012 16.9579 89.8175 16.9216C89.8337 16.8852 89.8578 16.8528 89.8879 16.8268C89.9181 16.8008 89.9536 16.7817 89.992 16.771L90.433 16.611C90.4677 16.5968 90.505 16.59 90.5425 16.591C90.58 16.592 90.6169 16.6008 90.6508 16.6168C90.6847 16.6327 90.715 16.6556 90.7396 16.6839C90.7643 16.7121 90.7828 16.7452 90.794 16.781C91.0189 17.3465 91.418 17.8257 91.9334 18.1493C92.4489 18.4729 93.0539 18.6241 93.661 18.581C95.556 18.581 96.488 17.919 96.488 16.581C96.5056 16.2279 96.3974 15.8799 96.1826 15.599C95.9678 15.3181 95.6604 15.1225 95.315 15.047C94.7962 14.8922 94.2614 14.7979 93.721 14.766L92.638 14.626C92.3 14.5539 91.9661 14.4634 91.638 14.355C91.3131 14.2569 91.0102 14.097 90.746 13.884C90.4804 13.643 90.271 13.3465 90.1328 13.0156C89.9945 12.6846 89.9308 12.3273 89.946 11.969C90.013 10.215 91.322 9.072 93.642 9.072Z" fill="#394149"/>
<path opacity="0.55" d="M102.935 15.929C102.978 16.638 103.289 17.304 103.806 17.791C104.323 18.2779 105.007 18.5491 105.717 18.5491C106.427 18.5491 107.111 18.2779 107.628 17.791C108.145 17.304 108.457 16.638 108.499 15.929V9.564C108.499 9.343 108.569 9.27299 108.79 9.27299H109.252C109.473 9.27299 109.543 9.343 109.543 9.564V15.923C109.543 18.199 108.2 19.572 105.724 19.572C103.248 19.572 101.905 18.199 101.905 15.923V9.564C101.905 9.343 101.975 9.27299 102.186 9.27299H102.657C102.868 9.27299 102.938 9.343 102.938 9.564L102.935 15.929Z" fill="#394149"/>
<path opacity="0.55" d="M123.376 9.27299C123.597 9.27299 123.667 9.343 123.667 9.564V19.064C123.667 19.285 123.597 19.355 123.376 19.355H122.955C122.744 19.355 122.674 19.285 122.674 19.064V13.283C122.674 12.4415 122.731 11.6009 122.844 10.767H122.784C122.471 11.5294 122.105 12.2695 121.691 12.982L119.536 16.782C119.51 16.848 119.464 16.9045 119.405 16.9439C119.346 16.9834 119.276 17.004 119.205 17.003H118.924C118.852 17.0034 118.781 16.9828 118.72 16.9435C118.66 16.9042 118.612 16.8481 118.583 16.782L116.398 12.942C116.011 12.2395 115.677 11.5091 115.398 10.757H115.338C115.44 11.5985 115.494 12.4453 115.498 13.293V19.067C115.498 19.288 115.428 19.358 115.207 19.358H114.816C114.595 19.358 114.525 19.288 114.525 19.067V9.56699C114.525 9.34599 114.595 9.276 114.816 9.276H115.177C115.259 9.26841 115.342 9.28655 115.414 9.32792C115.485 9.36929 115.542 9.43186 115.577 9.507L119.086 15.742L122.575 9.56699C122.685 9.35599 122.745 9.326 122.966 9.326L123.376 9.27299Z" fill="#394149"/>
<path opacity="0.55" d="M8.752 17.834V25.082C8.752 25.3605 8.64137 25.6276 8.44446 25.8245C8.24755 26.0214 7.98048 26.132 7.702 26.132C7.42352 26.132 7.15645 26.0214 6.95954 25.8245C6.76262 25.6276 6.652 25.3605 6.652 25.082V17.844C6.94296 18.0566 7.29177 18.1755 7.652 18.185C8.04573 18.1963 8.43146 18.0724 8.745 17.834H8.752ZM17.674 15.734C17.4088 15.734 17.1544 15.8394 16.9669 16.0269C16.7794 16.2144 16.674 16.4688 16.674 16.734V18C16.674 18.2785 16.7846 18.5455 16.9815 18.7425C17.1785 18.9394 17.4455 19.05 17.724 19.05C18.0025 19.05 18.2695 18.9394 18.4665 18.7425C18.6634 18.5455 18.774 18.2785 18.774 18V16.792C18.7823 16.6481 18.7594 16.5041 18.7068 16.3699C18.6542 16.2356 18.5733 16.1144 18.4695 16.0143C18.3656 15.9143 18.2414 15.838 18.1054 15.7904C17.9693 15.7429 17.8245 15.7254 17.681 15.739L17.674 15.734ZM4.381 20.581C4.02106 20.5699 3.67272 20.4511 3.381 20.24V27.508C3.37666 27.6489 3.40066 27.7893 3.4516 27.9208C3.50254 28.0523 3.57937 28.1722 3.67753 28.2735C3.7757 28.3747 3.89319 28.4552 4.02305 28.5102C4.15291 28.5651 4.29249 28.5934 4.4335 28.5934C4.57451 28.5934 4.71409 28.5651 4.84395 28.5102C4.97381 28.4552 5.0913 28.3747 5.18947 28.2735C5.28763 28.1722 5.36446 28.0523 5.4154 27.9208C5.46634 27.7893 5.49035 27.6489 5.486 27.508V20.29C5.15946 20.5012 4.77424 20.6031 4.386 20.581H4.381ZM14.406 13.564C14.2703 13.5568 14.1345 13.5773 14.007 13.6244C13.8795 13.6714 13.7629 13.7439 13.6644 13.8375C13.5658 13.9311 13.4874 14.0438 13.4339 14.1687C13.3803 14.2936 13.3528 14.4281 13.353 14.564V20.15C13.3487 20.2909 13.3727 20.4313 13.4236 20.5628C13.4745 20.6943 13.5514 20.8142 13.6495 20.9155C13.7477 21.0167 13.8652 21.0972 13.9951 21.1522C14.1249 21.2071 14.2645 21.2354 14.4055 21.2354C14.5465 21.2354 14.6861 21.2071 14.8159 21.1522C14.9458 21.0972 15.0633 21.0167 15.1615 20.9155C15.2596 20.8142 15.3365 20.6943 15.3874 20.5628C15.4383 20.4313 15.4623 20.2909 15.458 20.15V14.636C15.4664 14.4914 15.4434 14.3468 15.3904 14.212C15.3374 14.0772 15.2558 13.9556 15.1512 13.8554C15.0466 13.7553 14.9215 13.6791 14.7845 13.632C14.6476 13.585 14.5021 13.5683 14.358 13.583L14.406 13.564ZM11.078 15.709C10.7003 15.7064 10.3325 15.5873 10.025 15.368V22.656C10.0207 22.7969 10.0447 22.9373 10.0956 23.0688C10.1465 23.2003 10.2234 23.3202 10.3215 23.4215C10.4197 23.5227 10.5372 23.6032 10.6671 23.6582C10.7969 23.7131 10.9365 23.7414 11.0775 23.7414C11.2185 23.7414 11.3581 23.7131 11.4879 23.6582C11.6178 23.6032 11.7353 23.5227 11.8335 23.4215C11.9316 23.3202 12.0085 23.2003 12.0594 23.0688C12.1103 22.9373 12.1343 22.7969 12.13 22.656V15.378C11.8127 15.6143 11.4255 15.7379 11.03 15.729L11.078 15.709ZM2.105 21.293V0.932C2.10237 0.683903 2.00196 0.446863 1.82558 0.272361C1.64921 0.0978583 1.41111 -1.39791e-05 1.163 1.49759e-09H0.942C0.693889 -1.39791e-05 0.455791 0.0978583 0.279416 0.272361C0.103041 0.446863 0.00263387 0.683903 0 0.932V21.292C0 21.5418 0.0992463 21.7814 0.275906 21.9581C0.452565 22.1348 0.692166 22.234 0.942 22.234H1.163C1.41283 22.234 1.65244 22.1348 1.82909 21.9581C2.00575 21.7814 2.105 21.5418 2.105 21.292V21.293ZM4.491 19.809H4.271C4.02117 19.809 3.78156 19.7098 3.60491 19.5331C3.42825 19.3564 3.329 19.1168 3.329 18.867V3.358C3.33163 3.1099 3.43204 2.87286 3.60842 2.69836C3.78479 2.52386 4.02289 2.42599 4.271 2.426H4.492C4.74011 2.42599 4.97821 2.52386 5.15458 2.69836C5.33096 2.87286 5.43137 3.1099 5.434 3.358V18.887C5.434 19.1368 5.33475 19.3764 5.15809 19.5531C4.98144 19.7298 4.74183 19.829 4.492 19.829L4.491 19.809ZM7.809 17.423H7.578C7.33082 17.423 7.09376 17.3248 6.91898 17.15C6.74419 16.9752 6.646 16.7382 6.646 16.491V5.764C6.64468 5.64077 6.66781 5.5185 6.71405 5.40427C6.7603 5.29004 6.82874 5.18611 6.91542 5.0985C7.00209 5.0109 7.10528 4.94135 7.21901 4.89389C7.33275 4.84643 7.45476 4.82199 7.578 4.822H7.809C8.0571 4.82463 8.29414 4.92504 8.46864 5.10142C8.64314 5.27779 8.74101 5.51589 8.741 5.764V16.491C8.741 16.7382 8.64281 16.9752 8.46802 17.15C8.29324 17.3248 8.05618 17.423 7.809 17.423ZM11.127 14.967H10.916C10.6679 14.967 10.4298 14.8691 10.2534 14.6946C10.077 14.5201 9.97663 14.2831 9.974 14.035V8.26C9.96607 8.1315 9.98457 8.00274 10.0283 7.88168C10.0721 7.76061 10.1403 7.6498 10.2285 7.55609C10.3168 7.46237 10.4234 7.38775 10.5416 7.33683C10.6598 7.2859 10.7873 7.25976 10.916 7.26H11.137C11.3868 7.26 11.6264 7.35925 11.8031 7.53591C11.9798 7.71256 12.079 7.95217 12.079 8.202V14.016C12.0803 14.1405 12.0569 14.2641 12.0102 14.3796C11.9634 14.495 11.8943 14.6 11.8067 14.6886C11.7191 14.7771 11.6148 14.8474 11.4998 14.8953C11.3849 14.9433 11.2616 14.968 11.137 14.968L11.127 14.967ZM14.455 12.812H14.234C13.9842 12.812 13.7446 12.7128 13.5679 12.5361C13.3912 12.3594 13.292 12.1198 13.292 11.87V10.376C13.2946 10.1279 13.395 9.89086 13.5714 9.71636C13.7478 9.54186 13.9859 9.44399 14.234 9.444H14.455C14.7031 9.44399 14.9412 9.54186 15.1176 9.71636C15.294 9.89086 15.3944 10.1279 15.397 10.376V11.87C15.397 12.1181 15.2991 12.3562 15.1246 12.5326C14.9501 12.709 14.7131 12.8094 14.465 12.812H14.455Z" fill="#394149"/>
</g>
<g opacity="0.55">
<path opacity="0.55" d="M239.954 21.696C239.358 21.7283 238.768 21.5589 238.28 21.215C238.076 21.0638 237.912 20.8653 237.802 20.6366C237.692 20.4078 237.639 20.1557 237.648 19.902V10.608C237.643 10.5686 237.647 10.5286 237.66 10.4911C237.673 10.4536 237.694 10.4195 237.722 10.3914C237.75 10.3634 237.785 10.3421 237.822 10.3292C237.86 10.3163 237.9 10.3121 237.939 10.317H239.618C239.808 10.317 239.899 10.417 239.899 10.608V19.179C239.899 19.56 240.069 19.75 240.42 19.75C240.569 19.7561 240.717 19.7393 240.861 19.7C241.061 19.7 241.172 19.76 241.182 19.941L241.332 21.194C241.339 21.2305 241.339 21.2683 241.33 21.3046C241.322 21.341 241.305 21.3751 241.283 21.4046C241.26 21.4341 241.231 21.4583 241.198 21.4756C241.165 21.493 241.128 21.503 241.091 21.505C240.724 21.6264 240.341 21.6909 239.954 21.696Z" fill="#394149"/>
<path opacity="0.55" d="M249.43 20.623C248.584 21.3221 247.52 21.7046 246.422 21.7046C245.325 21.7046 244.261 21.3221 243.415 20.623C242.671 19.8721 242.254 18.8579 242.254 17.801C242.254 16.744 242.671 15.7299 243.415 14.979C244.263 14.2834 245.326 13.9032 246.422 13.9032C247.519 13.9032 248.582 14.2834 249.43 14.979C250.157 15.7368 250.562 16.746 250.562 17.796C250.562 18.8459 250.157 19.8552 249.43 20.613V20.623ZM244.999 19.3C245.392 19.6557 245.903 19.8528 246.432 19.8528C246.962 19.8528 247.473 19.6557 247.866 19.3C248.221 18.8913 248.417 18.368 248.417 17.8265C248.417 17.2849 248.221 16.7617 247.866 16.353C247.473 15.9972 246.962 15.8001 246.432 15.8001C245.903 15.8001 245.392 15.9972 244.999 16.353C244.644 16.7617 244.448 17.2849 244.448 17.8265C244.448 18.368 244.644 18.8913 244.999 19.3Z" fill="#394149"/>
<path opacity="0.55" d="M259.833 14.157C260.023 14.157 260.114 14.257 260.114 14.448V21.636C260.132 22.121 260.041 22.6039 259.848 23.0495C259.656 23.4951 259.366 23.8922 259.001 24.212C258.19 24.9022 257.148 25.2595 256.084 25.212C255.123 25.2457 254.174 24.9832 253.367 24.46C253.023 24.2342 252.729 23.9402 252.503 23.5962C252.277 23.2521 252.124 22.8654 252.054 22.46C252.054 22.26 252.054 22.169 252.325 22.169H254.009C254.081 22.1714 254.15 22.1945 254.209 22.2355C254.268 22.2765 254.313 22.3336 254.34 22.4C254.449 22.7046 254.667 22.9582 254.952 23.112C255.299 23.2911 255.685 23.3808 256.075 23.373C256.31 23.3858 256.546 23.3517 256.768 23.2725C256.99 23.1934 257.194 23.0708 257.368 22.912C257.527 22.7458 257.651 22.5491 257.732 22.3338C257.813 22.1184 257.849 21.8888 257.839 21.659V21.027C257.235 21.4683 256.501 21.6953 255.753 21.672C255.229 21.691 254.707 21.604 254.218 21.4162C253.729 21.2283 253.283 20.9436 252.906 20.579C252.183 19.8312 251.779 18.8319 251.779 17.792C251.779 16.752 252.183 15.7527 252.906 15.005C253.285 14.6445 253.732 14.3634 254.221 14.1783C254.71 13.9932 255.231 13.9077 255.753 13.927C256.523 13.9067 257.276 14.151 257.888 14.619V14.459C257.884 14.4205 257.888 14.3815 257.9 14.3448C257.912 14.3081 257.933 14.2746 257.96 14.2467C257.986 14.2189 258.019 14.1974 258.055 14.1837C258.092 14.1701 258.131 14.1647 258.169 14.168L259.833 14.157ZM255.943 19.891C256.201 19.899 256.458 19.8502 256.695 19.7481C256.933 19.646 257.144 19.493 257.316 19.3C257.649 18.8696 257.83 18.3407 257.83 17.7965C257.83 17.2522 257.649 16.7233 257.316 16.293C257.145 16.1025 256.934 15.9518 256.699 15.8515C256.464 15.7511 256.209 15.7035 255.953 15.712C255.692 15.7035 255.432 15.7519 255.191 15.854C254.951 15.956 254.735 16.1092 254.56 16.303C254.192 16.7138 253.998 17.2517 254.019 17.803C254.001 18.3502 254.191 18.884 254.55 19.297C254.726 19.4899 254.942 19.6426 255.182 19.7446C255.422 19.8465 255.682 19.8955 255.943 19.888V19.891Z" fill="#394149"/>
<path opacity="0.55" d="M268.766 20.623C267.918 21.3185 266.855 21.6987 265.759 21.6987C264.662 21.6987 263.599 21.3185 262.751 20.623C262.024 19.8635 261.618 18.8525 261.618 17.801C261.618 16.7494 262.024 15.7384 262.751 14.979C263.6 14.2852 264.662 13.9061 265.759 13.9061C266.855 13.9061 267.917 14.2852 268.766 14.979C269.493 15.7367 269.898 16.746 269.898 17.796C269.898 18.8459 269.493 19.8552 268.766 20.613V20.623ZM264.325 19.3C264.716 19.6641 265.23 19.8667 265.764 19.8667C266.297 19.8667 266.812 19.6641 267.202 19.3C267.552 18.8885 267.743 18.3663 267.743 17.8265C267.743 17.2866 267.552 16.7644 267.202 16.353C266.812 15.9888 266.297 15.7862 265.764 15.7862C265.23 15.7862 264.716 15.9888 264.325 16.353C263.976 16.7644 263.784 17.2866 263.784 17.8265C263.784 18.3663 263.976 18.8885 264.325 19.3Z" fill="#394149"/>
<path opacity="0.55" d="M273.517 12.454C273.252 12.6859 272.912 12.8137 272.559 12.8137C272.207 12.8137 271.867 12.6859 271.602 12.454C271.482 12.3406 271.386 12.2039 271.321 12.0522C271.255 11.9005 271.222 11.7371 271.222 11.572C271.222 11.4068 271.255 11.2434 271.321 11.0917C271.386 10.9401 271.482 10.8033 271.602 10.69C271.87 10.4638 272.209 10.3397 272.559 10.3397C272.91 10.3397 273.249 10.4638 273.517 10.69C273.637 10.8033 273.733 10.9401 273.798 11.0917C273.863 11.2434 273.897 11.4068 273.897 11.572C273.897 11.7371 273.863 11.9005 273.798 12.0522C273.733 12.2039 273.637 12.3406 273.517 12.454ZM273.728 21.697C273.132 21.726 272.543 21.5568 272.054 21.216C271.853 21.0626 271.692 20.8634 271.584 20.635C271.475 20.4066 271.423 20.1556 271.432 19.903V14.449C271.427 14.4096 271.431 14.3696 271.444 14.3321C271.457 14.2946 271.478 14.2605 271.506 14.2324C271.534 14.2044 271.569 14.1831 271.606 14.1702C271.644 14.1573 271.684 14.1531 271.723 14.158H273.407C273.597 14.158 273.688 14.258 273.688 14.449V19.181C273.688 19.5616 273.858 19.752 274.199 19.752C274.351 19.7575 274.503 19.7406 274.65 19.702C274.85 19.702 274.961 19.762 274.971 19.943L275.121 21.196C275.128 21.2326 275.128 21.2703 275.119 21.3067C275.111 21.343 275.094 21.3771 275.072 21.4066C275.049 21.4361 275.02 21.4603 274.987 21.4777C274.954 21.495 274.917 21.505 274.88 21.507C274.508 21.6294 274.119 21.6935 273.727 21.697H273.728Z" fill="#394149"/>
<path opacity="0.55" d="M281.312 13.917C281.838 13.8962 282.363 13.9814 282.855 14.1675C283.348 14.3535 283.798 14.6366 284.179 15C284.887 15.7605 285.28 16.761 285.28 17.8C285.28 18.8389 284.887 19.8394 284.179 20.6C283.8 20.9671 283.351 21.2535 282.858 21.4419C282.365 21.6302 281.839 21.7167 281.312 21.696C280.56 21.7136 279.822 21.4846 279.212 21.044V24.663C279.212 24.853 279.112 24.944 278.921 24.944H277.246C277.208 24.9511 277.168 24.9488 277.131 24.9372C277.093 24.9256 277.059 24.9051 277.032 24.8774C277.004 24.8498 276.983 24.8158 276.972 24.7784C276.96 24.741 276.958 24.7014 276.965 24.663V16.443C276.977 16.3626 276.97 16.2806 276.944 16.2036C276.918 16.1265 276.875 16.0565 276.818 15.999C276.76 15.9416 276.69 15.8984 276.613 15.8729C276.536 15.8474 276.454 15.8402 276.374 15.852H276.043C275.822 15.852 275.712 15.7716 275.712 15.611V14.428C275.707 14.3547 275.727 14.2818 275.769 14.2216C275.811 14.1614 275.872 14.1174 275.943 14.097C276.29 13.9711 276.657 13.9101 277.026 13.917C277.394 13.8843 277.762 13.962 278.086 14.1402C278.409 14.3183 278.671 14.5888 278.84 14.917C279.163 14.5908 279.549 14.3339 279.975 14.162C280.401 13.9901 280.857 13.9067 281.316 13.917H281.312ZM279.752 19.3C279.931 19.4867 280.145 19.6354 280.383 19.737C280.621 19.8385 280.877 19.8909 281.135 19.8909C281.394 19.8909 281.65 19.8385 281.888 19.737C282.125 19.6354 282.34 19.4867 282.519 19.3C282.895 18.8799 283.093 18.3295 283.07 17.766C283.096 17.2019 282.898 16.6503 282.519 16.232C282.34 16.0452 282.125 15.8965 281.888 15.7949C281.65 15.6934 281.394 15.641 281.135 15.641C280.877 15.641 280.621 15.6934 280.383 15.7949C280.145 15.8965 279.931 16.0452 279.752 16.232C279.387 16.6577 279.198 17.2059 279.221 17.766C279.201 18.3256 279.39 18.8727 279.752 19.3Z" fill="#394149"/>
<path opacity="0.55" d="M290.018 21.696C289.117 21.7327 288.224 21.5165 287.439 21.072C287.125 20.8825 286.857 20.6247 286.655 20.3176C286.454 20.0105 286.324 19.662 286.276 19.298C286.276 19.098 286.346 18.998 286.567 18.998H288.039C288.109 19.0007 288.177 19.0228 288.236 19.0618C288.294 19.1008 288.341 19.1552 288.37 19.219C288.581 19.76 289.132 20.031 290.014 20.031C290.322 20.0452 290.628 19.9833 290.906 19.851C291.002 19.8077 291.085 19.7392 291.145 19.6527C291.205 19.5662 291.24 19.465 291.247 19.36C291.247 19.099 291.087 18.919 290.766 18.799C290.386 18.6722 289.992 18.588 289.593 18.548C289.122 18.4942 288.654 18.4103 288.193 18.297C287.744 18.1952 287.335 17.9612 287.02 17.625C286.834 17.3966 286.698 17.1324 286.619 16.849C286.539 16.5655 286.519 16.2688 286.56 15.9772C286.6 15.6857 286.7 15.4056 286.854 15.1544C287.007 14.9032 287.21 14.6862 287.451 14.517C288.174 14.0566 289.021 13.8322 289.877 13.875C290.705 13.8494 291.523 14.0562 292.239 14.472C292.528 14.6361 292.776 14.8626 292.967 15.1349C293.157 15.4071 293.284 15.7184 293.339 16.046C293.339 16.246 293.249 16.346 293.068 16.346H291.592C291.53 16.3495 291.468 16.3342 291.414 16.3021C291.361 16.27 291.318 16.2226 291.292 16.166C291.193 15.9285 291.007 15.7384 290.771 15.635C290.505 15.4962 290.209 15.4273 289.909 15.435C289.615 15.4189 289.322 15.4774 289.057 15.605C288.964 15.6408 288.883 15.7039 288.826 15.7861C288.769 15.8683 288.737 15.9658 288.736 16.066C288.743 16.2029 288.793 16.3342 288.879 16.4405C288.966 16.5469 289.084 16.6227 289.217 16.657C289.602 16.8018 290.002 16.9025 290.41 16.957C290.879 17.0188 291.344 17.106 291.803 17.218C292.252 17.3197 292.661 17.5538 292.976 17.89C293.144 18.0752 293.274 18.2919 293.359 18.5275C293.443 18.7631 293.48 19.013 293.467 19.263C293.476 19.6095 293.395 19.9525 293.232 20.2582C293.068 20.5639 292.828 20.822 292.535 21.007C291.786 21.487 290.908 21.7274 290.018 21.696Z" fill="#394149"/>
<path opacity="0.55" d="M304.06 21.195C304.067 21.2303 304.067 21.2666 304.06 21.302C304.052 21.3381 304.036 21.3721 304.014 21.402C303.993 21.4311 303.966 21.4556 303.935 21.474C303.904 21.4921 303.87 21.504 303.835 21.509C303.469 21.6283 303.087 21.6924 302.702 21.699C302.322 21.7375 301.938 21.6775 301.588 21.5248C301.237 21.3721 300.932 21.1317 300.702 20.827C299.994 21.4356 299.078 21.7479 298.146 21.699C297.713 21.7189 297.281 21.648 296.876 21.491C296.472 21.3339 296.106 21.0941 295.8 20.787C295.495 20.4659 295.258 20.0866 295.104 19.6718C294.949 19.257 294.88 18.8152 294.9 18.373V14.453C294.9 14.263 294.99 14.162 295.181 14.162H296.86C297.05 14.162 297.141 14.262 297.141 14.453V18.072C297.122 18.5228 297.277 18.9638 297.572 19.305C297.719 19.4615 297.898 19.5845 298.097 19.6658C298.296 19.747 298.51 19.7846 298.725 19.776C298.944 19.7851 299.163 19.7509 299.369 19.6752C299.575 19.5995 299.764 19.4839 299.925 19.335C300.077 19.1774 300.196 18.9902 300.274 18.7851C300.351 18.5799 300.386 18.3611 300.376 18.142V14.448C300.376 14.258 300.466 14.157 300.657 14.157H302.357C302.547 14.157 302.638 14.257 302.638 14.448V19.173C302.638 19.564 302.808 19.754 303.138 19.754C303.293 19.76 303.449 19.7432 303.599 19.704C303.637 19.6933 303.677 19.6913 303.716 19.6983C303.754 19.7052 303.791 19.7208 303.823 19.744C303.855 19.7672 303.881 19.7973 303.9 19.832C303.918 19.8667 303.928 19.9049 303.93 19.944L304.06 21.195Z" fill="#394149"/>
<path opacity="0.55" d="M319.992 21.195C320 21.2312 320 21.2687 319.992 21.305C319.984 21.3411 319.969 21.3752 319.947 21.405C319.925 21.4349 319.897 21.4595 319.864 21.477C319.832 21.4944 319.796 21.5043 319.759 21.506C319.386 21.627 318.998 21.6911 318.606 21.696C318.01 21.7268 317.421 21.5575 316.932 21.215C316.721 21.0682 316.549 20.8716 316.432 20.6426C316.314 20.4136 316.255 20.1592 316.26 19.902V17.546C316.281 17.0964 316.131 16.6557 315.839 16.313C315.698 16.1562 315.525 16.0327 315.33 15.9513C315.136 15.8698 314.926 15.8325 314.716 15.842C314.527 15.8351 314.339 15.8712 314.165 15.9476C313.992 16.024 313.838 16.1386 313.716 16.283C313.451 16.6188 313.316 17.0387 313.335 17.466V21.166C313.335 21.356 313.245 21.457 313.054 21.457H311.36C311.321 21.4619 311.281 21.4578 311.243 21.445C311.205 21.4321 311.171 21.4109 311.143 21.383C311.115 21.3548 311.094 21.3206 311.081 21.283C311.068 21.2454 311.064 21.2054 311.069 21.166V17.546C311.091 17.1014 310.952 16.6638 310.678 16.313C310.556 16.1661 310.403 16.0477 310.23 15.9664C310.058 15.885 309.869 15.8425 309.678 15.842C309.474 15.8341 309.271 15.8693 309.081 15.9453C308.891 16.0213 308.72 16.1363 308.578 16.283C308.291 16.6082 308.144 17.033 308.167 17.466V21.166C308.172 21.2054 308.168 21.2454 308.155 21.283C308.142 21.3204 308.121 21.3544 308.093 21.3825C308.065 21.4106 308.031 21.4319 307.994 21.445C307.956 21.4577 307.916 21.4618 307.877 21.457H306.243C306.053 21.457 305.962 21.357 305.962 21.166V16.443C305.974 16.3626 305.967 16.2806 305.941 16.2036C305.915 16.1265 305.872 16.0564 305.815 15.999C305.758 15.9415 305.688 15.8984 305.61 15.8728C305.533 15.8473 305.451 15.8402 305.371 15.852H305.04C304.819 15.852 304.709 15.7716 304.709 15.611V14.428C304.704 14.3547 304.724 14.282 304.766 14.2218C304.808 14.1616 304.87 14.1175 304.94 14.097C305.287 13.9711 305.654 13.9101 306.023 13.917C306.377 13.8868 306.732 13.9573 307.048 14.1204C307.364 14.2836 307.627 14.5327 307.807 14.839C308.145 14.5185 308.546 14.2712 308.984 14.1125C309.422 13.9539 309.888 13.8873 310.353 13.917C310.805 13.8948 311.255 13.9796 311.668 14.1643C312.081 14.349 312.444 14.6284 312.729 14.98C313.061 14.6193 313.469 14.3368 313.923 14.153C314.377 13.9692 314.867 13.8885 315.356 13.917C315.794 13.8966 316.231 13.9671 316.64 14.124C317.048 14.281 317.42 14.521 317.732 14.829C318.036 15.1504 318.272 15.5303 318.426 15.9455C318.579 16.3608 318.646 16.8029 318.624 17.245V19.18C318.624 19.561 318.794 19.751 319.115 19.751C319.27 19.7583 319.426 19.7414 319.576 19.701C319.783 19.701 319.894 19.7813 319.907 19.942L319.992 21.195Z" fill="#394149"/>
<path opacity="0.55" d="M202.441 12.854C203.181 9.88125 204.894 7.24145 207.307 5.35488C209.72 3.4683 212.696 2.44342 215.759 2.44342C218.822 2.44342 221.798 3.4683 224.211 5.35488C226.625 7.24145 228.337 9.88125 229.077 12.854H227.877C225.848 12.824 223.86 13.4304 222.193 14.588C222.097 14.6574 221.997 14.7209 221.893 14.778H221.753C221.649 14.7209 221.549 14.6574 221.453 14.588C219.771 13.4577 217.79 12.8541 215.764 12.8541C213.738 12.8541 211.757 13.4577 210.075 14.588C209.979 14.6574 209.879 14.7209 209.775 14.778H209.63C209.526 14.7209 209.426 14.6574 209.33 14.588C207.662 13.43 205.674 12.8236 203.644 12.854H202.441ZM225.709 19.144C226.326 18.6631 227.092 18.4114 227.874 18.432H229.488V15.21H227.874C226.494 15.1926 225.146 15.6216 224.03 16.433C223.403 16.8955 222.644 17.145 221.865 17.145C221.085 17.145 220.326 16.8955 219.699 16.433C218.556 15.6374 217.197 15.211 215.805 15.211C214.412 15.211 213.053 15.6374 211.91 16.433C211.283 16.8955 210.524 17.145 209.745 17.145C208.965 17.145 208.206 16.8955 207.579 16.433C206.45 15.6121 205.084 15.1826 203.689 15.21H202.03V18.428H203.644C204.426 18.4074 205.192 18.6591 205.809 19.14C206.95 19.9356 208.308 20.3622 209.699 20.3622C211.09 20.3622 212.447 19.9356 213.588 19.14C214.206 18.6606 214.971 18.4091 215.753 18.428C216.536 18.4056 217.301 18.6575 217.918 19.14C219.061 19.9355 220.42 20.3619 221.813 20.3619C223.205 20.3619 224.564 19.9355 225.707 19.14L225.709 19.144ZM225.709 24.898C226.326 24.4171 227.092 24.1654 227.874 24.186H229.488V20.965H227.874C226.494 20.9476 225.146 21.3766 224.03 22.188C223.403 22.6505 222.644 22.9 221.865 22.9C221.085 22.9 220.326 22.6505 219.699 22.188C218.556 21.3924 217.197 20.966 215.805 20.966C214.412 20.966 213.053 21.3924 211.91 22.188C211.283 22.6505 210.524 22.9 209.745 22.9C208.965 22.9 208.206 22.6505 207.579 22.188C206.45 21.3671 205.084 20.9376 203.689 20.965H202.03V24.183H203.644C204.426 24.1624 205.192 24.4141 205.809 24.895C206.95 25.6906 208.308 26.1172 209.699 26.1172C211.09 26.1172 212.447 25.6906 213.588 24.895C214.206 24.4156 214.971 24.1641 215.753 24.183C216.536 24.1606 217.301 24.4125 217.918 24.895C219.061 25.6905 220.42 26.1169 221.813 26.1169C223.205 26.1169 224.564 25.6905 225.707 24.895L225.709 24.898Z" fill="#394149"/>
</g>
<g opacity="0.55">
<path opacity="0.55" d="M135.448 67.845H138.455V80.005H135.448V67.845ZM139.648 75.414C139.648 72.407 141.493 70.614 144.34 70.614C147.187 70.614 149.032 72.408 149.032 75.414C149.032 78.42 147.232 80.226 144.34 80.226C141.448 80.226 139.648 78.473 139.648 75.414ZM146.014 75.414C146.014 73.76 145.362 72.787 144.34 72.787C143.318 72.787 142.676 73.787 142.676 75.414C142.676 77.041 143.308 78.02 144.34 78.02C145.372 78.02 146.014 77.098 146.014 75.42V75.414ZM150.164 80.597H153.051C153.189 80.9018 153.421 81.154 153.714 81.3162C154.007 81.4783 154.344 81.5417 154.675 81.497C155.818 81.497 156.419 80.875 156.419 79.973V78.291H156.359C156.12 78.8072 155.731 79.2397 155.243 79.5328C154.755 79.8258 154.191 79.9659 153.622 79.935C151.422 79.935 149.973 78.261 149.973 75.384C149.973 72.507 151.356 70.692 153.662 70.692C154.248 70.6689 154.827 70.8255 155.322 71.1408C155.816 71.4561 156.203 71.915 156.429 72.456V70.782H159.436V79.905C159.436 82.105 157.501 83.464 154.644 83.464C151.987 83.464 150.333 82.271 150.163 80.607L150.164 80.597ZM156.43 75.404C156.43 73.94 155.758 73.018 154.696 73.018C153.634 73.018 152.982 73.93 152.982 75.404C152.982 76.878 153.624 77.71 154.696 77.71C155.768 77.71 156.43 76.898 156.43 75.41V75.404ZM160.57 75.404C160.57 72.397 162.415 70.604 165.262 70.604C165.899 70.5599 166.539 70.6546 167.136 70.8816C167.733 71.1087 168.273 71.4626 168.72 71.919C169.167 72.3754 169.51 72.9234 169.724 73.5251C169.939 74.1268 170.02 74.7678 169.962 75.404C169.962 78.411 168.162 80.216 165.262 80.216C162.362 80.216 160.57 78.472 160.57 75.416V75.404ZM166.936 75.404C166.936 73.75 166.284 72.777 165.262 72.777C164.24 72.777 163.648 73.79 163.648 75.424C163.648 77.058 164.28 78.03 165.302 78.03C166.324 78.03 166.936 77.098 166.936 75.424V75.404ZM171.106 68.597C171.098 68.2933 171.181 67.9941 171.343 67.7374C171.506 67.4806 171.741 67.2779 172.018 67.1548C172.296 67.0317 172.604 66.9939 172.903 67.0461C173.203 67.0983 173.48 67.2382 173.699 67.4481C173.919 67.6579 174.071 67.9282 174.137 68.2248C174.203 68.5214 174.179 68.8308 174.069 69.1139C173.959 69.397 173.767 69.641 173.518 69.8149C173.269 69.9889 172.974 70.0849 172.67 70.091C172.469 70.1048 172.267 70.0768 172.077 70.0088C171.887 69.9408 171.713 69.8342 171.566 69.6958C171.419 69.5574 171.303 69.3901 171.223 69.2045C171.144 69.0188 171.104 68.8188 171.106 68.617V68.597ZM171.106 70.802H174.113V80.002H171.106V70.802ZM185.03 75.402C185.03 78.409 183.697 80.124 181.411 80.124C180.826 80.162 180.242 80.0193 179.74 79.7153C179.238 79.4113 178.842 78.9606 178.604 78.424H178.544V82.955H175.537V70.782H178.544V72.426H178.604C178.83 71.8798 179.219 71.4165 179.718 71.0991C180.216 70.7817 180.801 70.6256 181.391 70.652C183.697 70.692 185.07 72.416 185.07 75.424L185.03 75.402ZM182.023 75.402C182.023 73.938 181.351 73.002 180.299 73.002C179.247 73.002 178.575 73.944 178.565 75.402C178.555 76.86 179.247 77.788 180.299 77.788C181.351 77.788 182.023 76.876 182.023 75.422V75.402ZM190.193 70.59C192.693 70.59 194.203 71.773 194.273 73.668H191.537C191.537 73.016 190.996 72.605 190.164 72.605C189.332 72.605 188.964 72.926 188.964 73.397C188.964 73.868 189.295 74.019 189.964 74.159L191.889 74.55C193.724 74.941 194.505 75.683 194.505 77.076C194.505 78.976 192.771 80.204 190.214 80.204C187.657 80.204 185.984 78.981 185.853 77.104H188.753C188.843 77.786 189.385 78.187 190.267 78.187C191.149 78.187 191.55 77.896 191.55 77.415C191.55 76.934 191.269 76.834 190.55 76.683L188.816 76.312C187.022 75.941 186.079 74.989 186.079 73.585C186.099 71.785 187.713 70.608 190.199 70.608L190.193 70.59ZM204.539 79.983H201.639V78.273H201.578C201.419 78.8487 201.068 79.3526 200.583 79.701C200.097 80.0494 199.508 80.2212 198.911 80.188C198.454 80.2136 197.997 80.1409 197.571 79.9748C197.145 79.8088 196.759 79.5532 196.44 79.2254C196.12 78.8975 195.875 78.5051 195.721 78.0744C195.566 77.6438 195.505 77.185 195.543 76.729V70.782H198.55V76.035C198.55 77.128 199.111 77.709 200.044 77.709C200.263 77.7094 200.479 77.6631 200.678 77.5732C200.878 77.4833 201.055 77.3519 201.2 77.1877C201.344 77.0235 201.451 76.8303 201.515 76.6212C201.579 76.412 201.597 76.1917 201.568 75.975V70.782H204.578L204.539 79.983ZM205.993 70.783H208.9V72.557H208.96C209.12 71.9888 209.464 71.4896 209.937 71.1377C210.411 70.7857 210.988 70.6008 211.578 70.612C212.177 70.5648 212.772 70.7441 213.246 71.1145C213.719 71.4848 214.036 72.0192 214.134 72.612H214.194C214.377 72.0125 214.754 71.4907 215.266 71.1287C215.778 70.7667 216.395 70.5849 217.021 70.612C217.43 70.5983 217.838 70.6708 218.217 70.8248C218.596 70.9787 218.938 71.2108 219.222 71.5058C219.506 71.8008 219.724 72.1522 219.863 72.5371C220.002 72.922 220.058 73.3319 220.028 73.74V80.006H217.021V74.542C217.021 73.542 216.57 73.078 215.728 73.078C215.54 73.0762 215.354 73.1148 215.183 73.1912C215.011 73.2675 214.858 73.3798 214.733 73.5205C214.609 73.6612 214.516 73.827 214.461 74.0067C214.406 74.1864 214.391 74.3757 214.415 74.562V80.005H211.558V74.505C211.558 73.583 211.107 73.081 210.285 73.081C210.096 73.0809 209.908 73.1211 209.735 73.1987C209.562 73.2764 209.408 73.3898 209.282 73.5315C209.156 73.6733 209.061 73.8401 209.005 74.021C208.948 74.2018 208.93 74.3927 208.952 74.581V80.004H205.945L205.993 70.783Z" fill="#394149"/>
<path opacity="0.55" d="M127.038 68.396C126.53 67.2297 125.856 66.1426 125.038 65.168C123.826 63.6865 122.314 62.4783 120.602 61.6229C118.889 60.7675 117.015 60.2842 115.103 60.2048C113.19 60.1254 111.283 60.4517 109.505 61.1622C107.728 61.8727 106.121 62.9514 104.79 64.3273C103.459 65.7033 102.435 67.3453 101.784 69.1454C101.133 70.9455 100.871 72.863 101.014 74.7718C101.157 76.6806 101.703 78.5375 102.615 80.2204C103.527 81.9032 104.785 83.374 106.306 84.536C107.284 85.2959 108.364 85.9137 109.514 86.371C111.127 87.0312 112.854 87.3708 114.597 87.371C118.195 87.3628 121.643 85.9287 124.185 83.3831C126.727 80.8374 128.157 77.3877 128.16 73.79C128.163 71.934 127.78 70.0977 127.037 68.397L127.038 68.396ZM114.587 62.956C116.152 62.9551 117.699 63.2964 119.118 63.956C118.772 64.1056 118.408 64.2102 118.035 64.267C116.809 64.4445 115.673 65.0139 114.796 65.8901C113.92 66.7664 113.351 67.9025 113.173 69.129C113.095 69.817 112.783 70.457 112.288 70.9411C111.793 71.4252 111.146 71.7236 110.456 71.786C109.23 71.9632 108.093 72.5324 107.217 73.4085C106.34 74.2846 105.771 75.4206 105.593 76.647C105.533 77.3009 105.254 77.9154 104.801 78.391C104.02 76.7403 103.669 74.919 103.781 73.0963C103.893 71.2736 104.464 69.5088 105.441 67.9662C106.419 66.4235 107.77 65.1531 109.37 64.2731C110.97 63.3931 112.767 62.9321 114.593 62.933L114.587 62.956ZM106.293 80.807C106.413 80.697 106.534 80.596 106.654 80.476C107.546 79.6113 108.118 78.4699 108.278 77.238C108.343 76.5454 108.652 75.8984 109.15 75.413C109.629 74.9141 110.275 74.6075 110.964 74.551C112.191 74.3735 113.327 73.8041 114.203 72.9278C115.079 72.0516 115.649 70.9154 115.826 69.689C115.869 68.9646 116.18 68.2822 116.698 67.774C117.19 67.2845 117.841 66.9891 118.533 66.942C119.66 66.7867 120.71 66.2857 121.54 65.508C122.485 66.292 123.286 67.2352 123.906 68.295C123.868 68.3463 123.825 68.3933 123.776 68.435C123.298 68.9383 122.653 69.2515 121.962 69.317C120.734 69.4914 119.597 70.0598 118.72 70.9366C117.843 71.8134 117.275 72.9513 117.1 74.179C117.03 74.8697 116.722 75.5148 116.23 76.0045C115.738 76.4943 115.091 76.7987 114.4 76.866C113.17 77.0421 112.03 77.6104 111.148 78.4863C110.267 79.3622 109.692 80.4991 109.508 81.728C109.454 82.2178 109.286 82.6881 109.017 83.101C107.988 82.489 107.067 81.712 106.29 80.801L106.293 80.807ZM114.584 84.677C113.567 84.6781 112.555 84.5363 111.577 84.256C111.911 83.634 112.129 82.9562 112.219 82.256C112.289 81.5673 112.595 80.924 113.085 80.4345C113.574 79.945 114.217 79.6393 114.906 79.569C116.134 79.3935 117.273 78.825 118.151 77.9485C119.029 77.0721 119.6 75.9349 119.778 74.707C119.848 74.0183 120.154 73.375 120.644 72.8855C121.133 72.396 121.776 72.0903 122.465 72.02C123.389 71.9005 124.27 71.5572 125.031 71.02C125.452 72.6212 125.501 74.2976 125.174 75.9207C124.848 77.5437 124.153 79.0705 123.145 80.3838C122.137 81.6972 120.842 82.7623 119.358 83.4976C117.875 84.233 116.243 84.6189 114.587 84.626L114.584 84.677Z" fill="#394149"/>
</g>
</svg>
