<svg width="19" height="19" viewBox="0 0 19 19" fill="none" xmlns="http://www.w3.org/2000/svg">
<path d="M9.423 4.99105C8.51835 4.99105 7.63401 5.2593 6.88182 5.7619C6.12963 6.2645 5.54337 6.97886 5.19718 7.81465C4.85098 8.65044 4.7604 9.57012 4.93689 10.4574C5.11338 11.3447 5.54901 12.1597 6.18869 12.7993C6.82838 13.439 7.64339 13.8747 8.53066 14.0512C9.41793 14.2276 10.3376 14.1371 11.1734 13.7909C12.0092 13.4447 12.7235 12.8584 13.2261 12.1062C13.7287 11.354 13.997 10.4697 13.997 9.56504C13.9981 8.96408 13.8805 8.36882 13.651 7.8134C13.4215 7.25798 13.0846 6.75333 12.6597 6.32839C12.2347 5.90344 11.7301 5.56656 11.1746 5.33707C10.6192 5.10758 10.024 4.98999 9.423 4.99105ZM9.423 12.538C8.835 12.538 8.2602 12.3637 7.77129 12.037C7.28238 11.7103 6.90133 11.246 6.67631 10.7028C6.45129 10.1595 6.39241 9.56175 6.50713 8.98504C6.62184 8.40834 6.90499 7.8786 7.32077 7.46282C7.73655 7.04704 8.26629 6.76388 8.843 6.64917C9.4197 6.53445 10.0175 6.59333 10.5607 6.81835C11.104 7.04337 11.5683 7.42443 11.895 7.91333C12.2216 8.40224 12.396 8.97704 12.396 9.56504C12.3944 10.353 12.0807 11.1083 11.5235 11.6655C10.9663 12.2227 10.211 12.5365 9.423 12.538ZM15.25 4.80405C15.25 5.01508 15.1874 5.22137 15.0702 5.39684C14.9529 5.5723 14.7863 5.70907 14.5913 5.78982C14.3964 5.87058 14.1818 5.89171 13.9748 5.85054C13.7679 5.80937 13.5777 5.70775 13.4285 5.55853C13.2793 5.4093 13.1777 5.21918 13.1365 5.01221C13.0953 4.80523 13.1165 4.59069 13.1972 4.39572C13.278 4.20075 13.4147 4.03411 13.5902 3.91686C13.7657 3.79962 13.972 3.73704 14.183 3.73704C14.3233 3.73652 14.4623 3.76375 14.5921 3.81717C14.7218 3.87059 14.8397 3.94915 14.939 4.04832C15.0383 4.1475 15.1169 4.26532 15.1705 4.39502C15.224 4.52472 15.2514 4.66373 15.251 4.80405H15.25ZM18.275 5.88605C18.3045 4.49911 17.7868 3.1563 16.834 2.14804C15.8237 1.19845 14.4823 0.681328 13.096 0.707043C11.623 0.623043 7.209 0.623043 5.736 0.707043C4.35013 0.679395 3.00847 1.19517 1.998 2.14405C1.04931 3.15448 0.534171 4.49634 0.563 5.88204C0.479 7.35504 0.479 11.769 0.563 13.242C0.533527 14.629 1.05118 15.9718 2.004 16.98C3.01461 17.9284 4.35534 18.445 5.741 18.42C7.214 18.504 11.628 18.504 13.101 18.42C14.4879 18.4495 15.8307 17.9319 16.839 16.979C17.7865 15.9682 18.3018 14.6273 18.275 13.242C18.363 11.769 18.363 7.35905 18.275 5.88605ZM16.375 14.82C16.2237 15.205 15.9946 15.5546 15.7021 15.8471C15.4096 16.1396 15.06 16.3687 14.675 16.52C13.501 16.986 10.714 16.878 9.417 16.878C8.12 16.878 5.329 16.978 4.159 16.52C3.77403 16.3687 3.4244 16.1396 3.1319 15.8471C2.83941 15.5546 2.61034 15.205 2.459 14.82C1.993 13.646 2.101 10.859 2.101 9.56204C2.101 8.26504 2.001 5.47404 2.459 4.30404C2.61034 3.91908 2.83941 3.56944 3.1319 3.27695C3.4244 2.98445 3.77403 2.75539 4.159 2.60404C5.333 2.13804 8.12 2.24604 9.417 2.24604C10.714 2.24604 13.505 2.14604 14.675 2.60404C15.06 2.75539 15.4096 2.98445 15.7021 3.27695C15.9946 3.56944 16.2237 3.91908 16.375 4.30404C16.841 5.47804 16.733 8.26504 16.733 9.56204C16.733 10.859 16.843 13.652 16.375 14.82Z" fill="#1D1D1F"/>
</svg>
