<svg width="29" height="28" viewBox="0 0 29 28" fill="none" xmlns="http://www.w3.org/2000/svg">
<g filter="url(#filter0_d_8_1827)">
<path d="M10.548 5.54998C11.002 5.09524 11.311 4.51614 11.436 3.88585C11.561 3.25556 11.4963 2.60237 11.2501 2.00882C11.004 1.41527 10.5874 0.908011 10.0531 0.551134C9.51875 0.194258 8.89061 0.00378418 8.24805 0.00378418C7.60549 0.00378418 6.97735 0.194258 6.443 0.551134C5.90866 0.908011 5.4921 1.41527 5.24596 2.00882C4.99981 2.60237 4.93514 3.25556 5.0601 3.88585C5.18507 4.51614 5.49407 5.09524 5.94805 5.54998C6.24991 5.85234 6.60842 6.09221 7.00308 6.25588C7.39774 6.41954 7.8208 6.50378 8.24805 6.50378C8.6753 6.50378 9.09835 6.41954 9.49301 6.25588C9.88767 6.09221 10.2462 5.85234 10.548 5.54998ZM23.548 13.95C23.0933 13.496 22.5142 13.187 21.8839 13.062C21.2536 12.9371 20.6004 13.0017 20.0069 13.2479C19.4133 13.494 18.9061 13.9106 18.5492 14.4449C18.1923 14.9793 18.0019 15.6074 18.0019 16.25C18.0019 16.8925 18.1923 17.5207 18.5492 18.055C18.9061 18.5894 19.4133 19.0059 20.0069 19.2521C20.6004 19.4982 21.2536 19.5629 21.8839 19.4379C22.5142 19.313 23.0933 19.004 23.548 18.55C23.8504 18.2481 24.0903 17.8896 24.2539 17.4949C24.4176 17.1003 24.5019 16.6772 24.5019 16.25C24.5019 15.8227 24.4176 15.3997 24.2539 15.005C24.0903 14.6104 23.8504 14.2518 23.548 13.95ZM23.448 2.19798L22.3 1.04998C22.1492 0.898677 21.9699 0.778634 21.7726 0.696726C21.5753 0.614819 21.3637 0.572657 21.15 0.572657C20.9364 0.572657 20.7248 0.614819 20.5275 0.696726C20.3301 0.778634 20.1509 0.898677 20 1.04998L6.05105 15.003C5.89975 15.1538 5.77971 15.3331 5.6978 15.5304C5.61589 15.7278 5.57373 15.9393 5.57373 16.153C5.57373 16.3666 5.61589 16.5782 5.6978 16.7755C5.77971 16.9729 5.89975 17.1521 6.05105 17.303L7.20005 18.45C7.35091 18.6013 7.53015 18.7213 7.72749 18.8032C7.92482 18.8851 8.13639 18.9273 8.35005 18.9273C8.56371 18.9273 8.77527 18.8851 8.97261 18.8032C9.16995 18.7213 9.34918 18.6013 9.50005 18.45L23.449 4.49698C23.6003 4.34611 23.7204 4.16688 23.8023 3.96954C23.8842 3.7722 23.9264 3.56064 23.9264 3.34698C23.9264 3.13332 23.8842 2.92175 23.8023 2.72441C23.7204 2.52708 23.6003 2.34784 23.449 2.19698L23.448 2.19798Z" fill="#06C167"/>
</g>
<defs>
<filter id="filter0_d_8_1827" x="0.998047" y="0.00378418" width="27.5039" height="27.4962" filterUnits="userSpaceOnUse" color-interpolation-filters="sRGB">
<feFlood flood-opacity="0" result="BackgroundImageFix"/>
<feColorMatrix in="SourceAlpha" type="matrix" values="0 0 0 0 0 0 0 0 0 0 0 0 0 0 0 0 0 0 127 0" result="hardAlpha"/>
<feOffset dy="4"/>
<feGaussianBlur stdDeviation="2"/>
<feComposite in2="hardAlpha" operator="out"/>
<feColorMatrix type="matrix" values="0 0 0 0 0 0 0 0 0 0 0 0 0 0 0 0 0 0 0.25 0"/>
<feBlend mode="normal" in2="BackgroundImageFix" result="effect1_dropShadow_8_1827"/>
<feBlend mode="normal" in="SourceGraphic" in2="effect1_dropShadow_8_1827" result="shape"/>
</filter>
</defs>
</svg>
