<svg width="23" height="11" viewBox="0 0 23 11" fill="none" xmlns="http://www.w3.org/2000/svg">
<path d="M16.2431 3.50299H1.15908C0.999952 3.50299 0.84734 3.5662 0.734818 3.67872C0.622296 3.79124 0.559082 3.94386 0.559082 4.10299L0.559082 6.90299C0.559082 6.98178 0.574601 7.0598 0.604754 7.1326C0.634907 7.20539 0.679103 7.27154 0.734818 7.32725C0.790533 7.38297 0.856677 7.42716 0.929472 7.45731C1.00227 7.48747 1.08029 7.50299 1.15908 7.50299H16.2431V9.80299C16.2435 10.04 16.314 10.2715 16.4459 10.4684C16.5777 10.6654 16.7649 10.8189 16.9838 10.9096C17.2027 11.0003 17.4436 11.0241 17.6761 10.9781C17.9086 10.9321 18.1222 10.8183 18.2901 10.651L22.5901 6.35099C22.702 6.2395 22.7907 6.10703 22.8513 5.96117C22.9118 5.81531 22.943 5.65892 22.943 5.50099C22.943 5.34305 22.9118 5.18667 22.8513 5.0408C22.7907 4.89494 22.702 4.76247 22.5901 4.65099L18.2901 0.350986C18.1222 0.183718 17.9086 0.0698993 17.6761 0.0238809C17.4436 -0.0221375 17.2027 0.00170486 16.9838 0.0924024C16.7649 0.1831 16.5777 0.336591 16.4459 0.533523C16.314 0.730454 16.2435 0.962007 16.2431 1.19899V3.50299Z" fill="white"/>
</svg>
