<svg width="23" height="11" viewBox="0 0 23 11" fill="none" xmlns="http://www.w3.org/2000/svg">
<path d="M15.8749 3.50292H0.790918C0.631788 3.50292 0.479176 3.56614 0.366654 3.67866C0.254132 3.79118 0.190918 3.9438 0.190918 4.10293L0.190918 6.90292C0.190918 6.98172 0.206437 7.05974 0.23659 7.13253C0.266743 7.20533 0.310939 7.27147 0.366654 7.32719C0.422369 7.3829 0.488513 7.4271 0.561308 7.45725C0.634103 7.48741 0.712125 7.50292 0.790918 7.50292H15.8749V9.80293C15.8753 10.0399 15.9459 10.2715 16.0777 10.4684C16.2095 10.6653 16.3967 10.8188 16.6156 10.9095C16.8346 11.0002 17.0755 11.024 17.3079 10.978C17.5404 10.932 17.754 10.8182 17.9219 10.6509L22.2219 6.35092C22.3338 6.23944 22.4226 6.10697 22.4831 5.96111C22.5437 5.81525 22.5749 5.65886 22.5749 5.50093C22.5749 5.34299 22.5437 5.1866 22.4831 5.04074C22.4226 4.89488 22.3338 4.76241 22.2219 4.65093L17.9219 0.350925C17.754 0.183657 17.5404 0.0698383 17.3079 0.0238199C17.0755 -0.0221985 16.8346 0.00164382 16.6156 0.0923414C16.3967 0.183039 16.2095 0.33653 16.0777 0.533462C15.9459 0.730393 15.8753 0.961946 15.8749 1.19893V3.50292Z" fill="#06C167"/>
</svg>
