<svg width="21" height="17" viewBox="0 0 21 17" fill="none" xmlns="http://www.w3.org/2000/svg">
<path d="M18.785 4.4132C18.798 4.5942 18.798 4.7752 18.798 4.9562C18.8092 6.51994 18.5094 8.07031 17.9161 9.51719C17.3229 10.9641 16.4479 12.2786 15.3422 13.3844C14.2364 14.4901 12.9219 15.3651 11.475 15.9583C10.0281 16.5516 8.47775 16.8514 6.914 16.8402C4.64 16.8463 2.41267 16.1952 0.5 14.9652C0.835031 15.0022 1.17194 15.0196 1.509 15.0172C3.38915 15.0219 5.21606 14.3931 6.695 13.2322C5.82305 13.2161 4.97794 12.9279 4.2778 12.4079C3.57765 11.888 3.05748 11.1623 2.79 10.3322C3.051 10.3736 3.31474 10.3954 3.579 10.3972C3.95018 10.3963 4.31976 10.3486 4.679 10.2552C3.73306 10.0639 2.88256 9.55093 2.27203 8.8035C1.66151 8.05607 1.32864 7.12028 1.33 6.1552V6.1062C1.9088 6.42912 2.5557 6.61072 3.218 6.6362C2.33156 6.04493 1.70417 5.13767 1.46388 4.09958C1.22359 3.06149 1.38852 1.97083 1.925 1.0502C2.9741 2.3415 4.28289 3.3979 5.76649 4.1509C7.25009 4.9039 8.87539 5.33669 10.537 5.4212C10.4711 5.10644 10.4376 4.78577 10.437 4.4642C10.4391 3.62768 10.692 2.81101 11.1631 2.11977C11.6342 1.42854 12.3019 0.894508 13.0797 0.586732C13.8575 0.278956 14.7098 0.211586 15.5263 0.393327C16.3429 0.575067 17.0861 0.997565 17.66 1.6062C18.5954 1.42595 19.4924 1.08453 20.311 0.597195C19.9992 1.56169 19.3464 2.37943 18.475 2.8972C19.3044 2.80263 20.1151 2.58455 20.88 2.2502C20.3081 3.08292 19.5999 3.81317 18.785 4.4102V4.4132Z" fill="#1D1D1F"/>
</svg>
